<?xml version="1.0" standalone="no"?><!DOCTYPE svg PUBLIC "-//W3C//DTD SVG 1.1//EN" "http://www.w3.org/Graphics/SVG/1.1/DTD/svg11.dtd"><svg t="1547689884419" class="icon" style="" viewBox="0 0 1024 1024" version="1.1" xmlns="http://www.w3.org/2000/svg" p-id="2261" xmlns:xlink="http://www.w3.org/1999/xlink" width="88" height="88"><defs><style type="text/css"></style></defs><path d="M346.333485 466.854226m-331.275507 0a331.275508 331.275508 0 1 0 662.551015 0 331.275508 331.275508 0 1 0-662.551015 0Z" fill="#FFCB57" p-id="2262"></path><path d="M609.848094 481.912203h-210.811687a30.115955 30.115955 0 0 1 0-60.23191h210.811687a30.115955 30.115955 0 0 1 0 60.23191zM685.137982 632.491979h-361.391463a30.115955 30.115955 0 0 1 0-60.23191h361.391463a30.115955 30.115955 0 0 1 0 60.23191z" fill="#333333" p-id="2263"></path><path d="M511.971239 1023.999398a511.971239 511.971239 0 1 1 352.055517-140.189772 30.115955 30.115955 0 1 1-41.409438-43.668135A451.739329 451.739329 0 1 0 511.971239 963.767487a30.115955 30.115955 0 0 1 0 60.231911z" fill="#333333" p-id="2264"></path><path d="M978.768546 1023.999398H511.971239a30.115955 30.115955 0 0 1 0-60.231911h387.441765l-76.193367-67.30916a30.115955 30.115955 0 1 1 40.05422-45.173933l135.521799 120.463821a30.115955 30.115955 0 0 1 8.131308 33.278131A30.115955 30.115955 0 0 1 978.768546 1023.999398z" fill="#333333" p-id="2265"></path></svg>