<?xml version="1.0" standalone="no"?><!DOCTYPE svg PUBLIC "-//W3C//DTD SVG 1.1//EN" "http://www.w3.org/Graphics/SVG/1.1/DTD/svg11.dtd"><svg t="1547689887983" class="icon" style="" viewBox="0 0 1028 1024" version="1.1" xmlns="http://www.w3.org/2000/svg" p-id="2388" xmlns:xlink="http://www.w3.org/1999/xlink" width="88.34375" height="88"><defs><style type="text/css"></style></defs><path d="M277.942857 277.942857m-248.685714 0a248.685714 248.685714 0 1 0 497.371428 0 248.685714 248.685714 0 1 0-497.371428 0Z" fill="#FFCB57" p-id="2389"></path><path d="M277.942857 555.885714a277.942857 277.942857 0 1 1 277.942857-277.942857 277.942857 277.942857 0 0 1-277.942857 277.942857z m0-497.371428a219.428571 219.428571 0 1 0 219.428572 219.428571A219.428571 219.428571 0 0 0 277.942857 58.514286zM852.699429 596.114286a175.542857 175.542857 0 1 1 175.542857-175.542857 175.542857 175.542857 0 0 1-175.542857 175.542857z m0-292.571429a117.028571 117.028571 0 1 0 117.028571 117.028572 117.028571 117.028571 0 0 0-117.028571-117.028572zM365.714286 1024a175.542857 175.542857 0 1 1 175.542857-175.542857 175.542857 175.542857 0 0 1-175.542857 175.542857z m0-292.571429a117.028571 117.028571 0 1 0 117.028571 117.028572 117.028571 117.028571 0 0 0-117.028571-117.028572z" fill="#333333" p-id="2390"></path><path d="M731.428571 351.085714H526.628571a29.257143 29.257143 0 0 1 0-58.514285h204.8a29.257143 29.257143 0 0 1 0 58.514285zM277.942857 746.057143a29.257143 29.257143 0 0 1-29.257143-29.257143V526.628571a29.257143 29.257143 0 0 1 58.514286 0v190.171429a29.257143 29.257143 0 0 1-29.257143 29.257143z" fill="#333333" p-id="2391"></path></svg>